<svg xmlns="http://www.w3.org/2000/svg" viewBox="0 0 32 32">
  <defs>
    <linearGradient id="lg" x1="0%" y1="90%" x2="75%" y2="0%">
      <stop offset="0%" stop-color="#16a34a"/>
      <stop offset="100%" stop-color="#4ade80"/>
    </linearGradient>
  </defs>
  <path d="M16,30 C5,27 3,9 9,4 C12,1 21,1 25,6 C29,11 28,24 22,28 C19,30 16,30 16,30Z" fill="url(#lg)" opacity="0.2"/>
  <path d="M16,30 C5,27 3,9 9,4 C12,1 21,1 25,6 C29,11 28,24 22,28 C19,30 16,30 16,30Z" fill="none" stroke="url(#lg)" stroke-width="1.2"/>
  <line x1="16" y1="28" x2="16" y2="17" stroke="#4ade80" stroke-width="0.8" opacity="0.7"/>
  <line x1="16" y1="17" x2="11" y2="11" stroke="#4ade80" stroke-width="0.8" opacity="0.7"/>
  <line x1="16" y1="17" x2="21" y2="11" stroke="#4ade80" stroke-width="0.8" opacity="0.7"/>
  <line x1="11" y1="11" x2="16" y2="6" stroke="#4ade80" stroke-width="0.8" opacity="0.5"/>
  <line x1="21" y1="11" x2="16" y2="6" stroke="#4ade80" stroke-width="0.8" opacity="0.5"/>
  <circle cx="16" cy="17" r="2.2" fill="#4ade80"/>
  <circle cx="11" cy="11" r="1.6" fill="#4ade80" opacity="0.85"/>
  <circle cx="21" cy="11" r="1.6" fill="#4ade80" opacity="0.85"/>
  <circle cx="16" cy="6" r="1.8" fill="#86efac"/>
  <circle cx="16" cy="28" r="1.3" fill="#4ade80" opacity="0.6"/>
</svg>
